<svg width="60" height="60" viewBox="0 0 60 60" fill="none" xmlns="http://www.w3.org/2000/svg">
<g clip-path="url(#clip0_11_57)">
<path d="M59.9999 8.34306C59.9999 5.73193 59.2555 3.66559 57.788 2.20262C51.8965 -3.66688 36.4068 2.57434 22.5182 16.4161C22.0135 16.9192 21.5523 17.4555 21.1088 18.005C20.9632 17.9448 20.7956 17.891 20.603 17.8462C16.603 16.9114 3.76548 19.0922 0.028323 34.0227C-0.0678539 34.4054 0.0859792 34.8063 0.412792 35.027C0.571229 35.135 0.754334 35.1881 0.937417 35.1881C1.13054 35.1881 1.32376 35.1286 1.48764 35.0096C6.56007 31.3301 10.6294 29.8501 14.1817 30.3949C13.9365 30.8394 13.6877 31.2729 13.4307 31.6872C13.2009 32.058 13.2567 32.5377 13.5653 32.8453L15.0363 34.3115L12.2827 37.0549C12.1059 37.2307 12.007 37.4696 12.007 37.7187C12.007 37.9677 12.1059 38.2066 12.2827 38.3824L21.4975 47.5669C21.6805 47.7492 21.9194 47.8407 22.1593 47.8407C22.3992 47.8407 22.6382 47.7492 22.8213 47.5669L25.5786 44.8186L27.0537 46.2889C27.235 46.4692 27.474 46.5627 27.7157 46.5627C27.885 46.5627 28.0554 46.5168 28.2073 46.4235C28.5948 46.1845 28.997 45.9524 29.4108 45.724C30.021 49.2939 28.5429 53.3891 24.8043 58.5093C24.5718 58.828 24.5635 59.2582 24.7832 59.5851C24.9599 59.8487 25.2538 59.9999 25.5614 59.9999C25.6365 59.9999 25.7125 59.9907 25.7875 59.9724C40.7318 56.2562 42.94 43.4636 42.0189 39.4737C41.9626 39.2302 41.8889 39.0385 41.809 38.8685C42.4048 38.3977 42.9853 37.9059 43.5278 37.3652C53.5344 27.3924 59.9999 15.9996 59.9999 8.34306ZM15.0539 28.6394C11.3964 27.8685 7.3772 28.9406 2.60457 31.9792C4.95198 25.4653 9.22754 22.3881 12.582 20.9388C15.0969 19.853 17.3858 19.5491 18.8506 19.5491C19.2434 19.5491 19.5757 19.571 19.8384 19.605L15.0539 28.6394ZM22.1593 45.5793L14.273 37.7187L16.3641 35.6358L23.1774 42.4255L24.2504 43.4947L22.1593 45.5793ZM38.9373 47.4122C37.4871 50.7713 34.3981 55.0514 27.8402 57.3979C30.8834 52.6454 31.9591 48.6427 31.1874 44.9953L40.2565 40.2235C40.4195 41.4558 40.3005 44.2537 38.9373 47.4122ZM32.5212 42.061C30.8725 42.8548 29.3022 43.6092 27.8612 44.4459L15.4091 32.0359C16.0816 30.8845 16.7033 29.634 17.3329 28.3423L21.1399 21.1544C21.9367 19.921 22.8194 18.7631 23.842 17.7437C36.5478 5.08009 51.4846 -1.42841 56.4641 3.53012C57.5664 4.62877 58.1249 6.24831 58.1249 8.34306C58.1249 15.4164 51.7263 26.5465 42.2039 36.0377C39.5516 38.6808 35.9774 40.3993 32.5212 42.061Z" fill="white"/>
<path d="M40.0542 12.05C38.9858 13.113 38.3971 14.5275 38.3971 16.0325C38.3971 17.5386 38.9858 18.9531 40.0542 20.0161C41.1556 21.1119 42.6022 21.6603 44.0486 21.6603C45.4952 21.6603 46.9418 21.1119 48.0422 20.0161C49.1107 18.9531 49.6984 17.5386 49.6984 16.0325C49.6984 14.5275 49.1107 13.113 48.0422 12.05C45.8413 9.85824 42.257 9.85824 40.0542 12.05ZM46.7202 18.6867C45.2462 20.1533 42.8502 20.1533 41.3763 18.6867C40.6649 17.978 40.2721 17.0359 40.2721 16.0325C40.2721 15.0301 40.6649 14.088 41.3763 13.3793C42.1133 12.646 43.0809 12.2798 44.0486 12.2798C45.0164 12.2798 45.9832 12.646 46.7202 13.3793C47.4315 14.088 47.8234 15.0301 47.8234 16.0325C47.8234 17.0359 47.4315 17.978 46.7202 18.6867Z" fill="white"/>
<path d="M15.4358 44.2006C15.0705 43.8334 14.4773 43.8334 14.1101 44.1988L4.73973 53.5381C4.37344 53.9033 4.37166 54.4966 4.73786 54.8637C4.92094 55.0477 5.16085 55.1393 5.40161 55.1393C5.64057 55.1393 5.88047 55.0477 6.06357 54.8656L15.434 45.5263C15.8002 45.1609 15.802 44.5677 15.4358 44.2006Z" fill="white"/>
<path d="M5.36675 48.7251C5.60572 48.7251 5.84553 48.6335 6.02873 48.4514L12.1994 42.3009C12.5655 41.9356 12.5665 41.3423 12.2011 40.9752C11.8359 40.6081 11.2426 40.6071 10.8755 40.9733L4.70478 47.1239C4.33859 47.4891 4.33766 48.0825 4.703 48.4496C4.88609 48.6335 5.126 48.7251 5.36675 48.7251Z" fill="white"/>
<path d="M17.3455 47.4223L11.1749 53.5728C10.8087 53.9381 10.8077 54.5314 11.1731 54.8985C11.3562 55.0825 11.596 55.1741 11.8368 55.1741C12.0757 55.1741 12.3156 55.0825 12.4987 54.9003L18.6694 48.7499C19.0356 48.3845 19.0366 47.7913 18.6712 47.4241C18.306 47.057 17.7126 47.0561 17.3455 47.4223Z" fill="white"/>
</g>
<defs>
<clipPath id="clip0_11_57">
<rect width="60" height="60" fill="white"/>
</clipPath>
</defs>
</svg>
